{"title":"300 Rise of an Empire 2014 BDRip 720p x264 Dual Audio Org. BD Au","uid":10466512,"size":966181807,"categoryP":"video","categoryS":"hd___movies","magnet":"?xt=urn:btih:6a3494ece588b4918d34509298260d2c8621b54f&amp;dn=300+Rise+of+an+Empire+2014+BDRip+720p+x264+Dual+Audio+Org.+BD+Au&amp;tr=udp%3A%2F%2Ftracker.openbittorrent.com%3A80&amp;tr=udp%3A%2F%2Fopen.demonii.com%3A1337&amp;tr=udp%3A%2F%2Ftracker.coppersurfer.tk%3A6969&amp;tr=udp%3A%2F%2Fexodus.desync.com%3A6969","seeders":2,"leechers":0,"uploader":"Dj_YsB","files":8,"time":1404203618,"description":"300 Rise of an Empire 2014 BDRip 720p x264 Dual Audio Org. BD Audio 5.1 Ch. [Hindi-Eng] YsB TeaM SSX\n\n &lt;a href=&quot;\nhttp://i.imgur.com/f6a5puK.jpg&quot; rel=&quot;nofollow&quot; target=&quot;_NEW&quot;&gt;\nhttp://i.imgur.com/f6a5puK.jpg&lt;/a&gt;\n\n\nInfo:\nGeneral\nComplete name                            : 300 Rise of an Empire 2014 BDRip 720p x264 Dual Audio Org. BD Audio 5.1 Ch. [Hindi-Eng] YsB TeaM SSX.mkv\nFormat                                   : Matroska\nFormat version                           : Version 4 / Version 2\nFile size                                : 907 MiB\nDuration                                 : 1h 42mn\nOverall bit rate                         : 1 236 Kbps\nMovie name                               : 300 Rise of an Empire 2014 BDRip 720p x264 Dual Audio Org. BD Audio 5.1 Ch. [Hindi-Eng] YsB TeaM SSX\n\nVideo\nID                                       : 1\nFormat                                   : AVC\nDuration                                 : 1h 42mn\nBit rate                                 : 850 Kbps\nWidth                                    : 1 280 pixels\nHeight                                   : 528 pixels\nFrame rate mode                          : Constant\nFrame rate                               : 23.976 fps\nStream size                              : 607 MiB (67%)\nTitle                                    : YsB TeaM SSX\n\nAudio #1\nID                                       : 2\nFormat                                   : AC-3\nDuration                                 : 1h 42mn\nBit rate mode                            : Constant\nBit rate                                 : 192 Kbps\nChannel(s)                               : 6 channels\nChannel positions                        : Front: L C R, Side: L R, LFE\nSampling rate                            : 48.0 KHz\nStream size                              : 141 MiB (16%)\nTitle                                    : YsB TeaM SSX\nLanguage                                 : Hindi\n\nAudio #2\nID                                       : 3\nFormat                                   : AC-3\nDuration                                 : 1h 42mn\nBit rate mode                            : Constant\nBit rate                                 : 192 Kbps\nChannel(s)                               : 6 channels\nChannel positions                        : Front: L C R, Side: L R, LFE\nSampling rate                            : 48.0 KHz\nStream size                              : 141 MiB (16%)\nTitle                                    : YsB TeaM SSX\nLanguage                                 : English\n\nText #1\nID                                       : 4\nFormat                                   : UTF-8\nCodec ID                                 : S_TEXT/UTF8\nCodec ID/Info                            : UTF-8 Plain Text\nTitle                                    : YsB TeaM SSX [Full]\nLanguage                                 : English\nDefault                                  : No\nForced                                   : No\n\nText #2\nID                                       : 5\nFormat                                   : UTF-8\nCodec ID                                 : S_TEXT/UTF8\nCodec ID/Info                            : UTF-8 Plain Text\nTitle                                    : YsB TeaM SSX [SDH]\nLanguage                                 : English\nDefault                                  : No\nForced                                   : No\n\nMenu\n00:00:00.000                             : en:Chapter 01\n00:10:26.376                             : en:Chapter 02\n00:20:54.628                             : en:Chapter 03\n00:31:15.290                             : en:Chapter 04\n00:40:58.498                             : en:Chapter 05\n00:50:50.714                             : en:Chapter 06\n01:00:05.435                             : en:Chapter 07\n01:09:51.813                             : en:Chapter 08\n01:19:51.245                             : en:Chapter 09\n01:31:07.295                             : en:Chapter 10\n01:33:57.131                             : en:Chapter 11\n\nScreenShot: &lt;a href=&quot;\nhttp://i.imgur.com/LZfdesy.jpg&quot; rel=&quot;nofollow&quot; target=&quot;_NEW&quot;&gt;\nhttp://i.imgur.com/LZfdesy.jpg&lt;/a&gt; &lt;a href=&quot;\nhttp://i.imgur.com/cUcUjEF.jpg&quot; rel=&quot;nofollow&quot; target=&quot;_NEW&quot;&gt;\nhttp://i.imgur.com/cUcUjEF.jpg&lt;/a&gt; &lt;a href=&quot;\nhttp://i.imgur.com/csfzuxS.jpg&quot; rel=&quot;nofollow&quot; target=&quot;_NEW&quot;&gt;\nhttp://i.imgur.com/csfzuxS.jpg&lt;/a&gt;\n\nThanks\nGPsoft, HDDR...\nTeaM SSX - Maverick Dude, Hari, Hemkumar, Sajan...","torrent":{"xt":"urn:btih:6a3494ece588b4918d34509298260d2c8621b54f","amp;dn":"300+Rise+of+an+Empire+2014+BDRip+720p+x264+Dual+Audio+Org.+BD+Au","amp;tr":["udp%3A%2F%2Ftracker.openbittorrent.com%3A80","udp%3A%2F%2Fopen.demonii.com%3A1337","udp%3A%2F%2Ftracker.coppersurfer.tk%3A6969","udp%3A%2F%2Fexodus.desync.com%3A6969"],"infoHash":"6a3494ece588b4918d34509298260d2c8621b54f","infoHashBuffer":{"type":"Buffer","data":[106,52,148,236,229,136,180,145,141,52,80,146,152,38,13,44,134,33,181,79]},"announce":[],"urlList":[]}}